<svg width="61" height="40" viewBox="0 0 61 40" fill="none" xmlns="http://www.w3.org/2000/svg">
<path d="M19.4752 28.5413C13.0288 29.713 8.4038 29.4656 7.72886 27.5851C6.66487 24.6207 15.82 18.7205 28.1773 14.4066C40.5347 10.0928 51.4148 8.99882 52.4788 11.9632C53.1579 13.8552 49.6742 16.9432 43.8521 20.0513" stroke="#364D9D" stroke-width="2"/>
<ellipse cx="29.7393" cy="19.2872" rx="14.4337" ry="14.2347" fill="#364D9D"/>
<path fill-rule="evenodd" clip-rule="evenodd" d="M23.0034 14.945C23.0034 14.3732 23.4734 13.9097 24.0531 13.9097H35.6001C36.1798 13.9097 36.6498 14.3732 36.6498 14.945V24.2622C36.6498 24.834 36.1798 25.2975 35.6001 25.2975H24.0531C23.4734 25.2975 23.0034 24.834 23.0034 24.2622V14.945ZM35.6001 14.945H24.0531V24.2622H35.6001V14.945Z" fill="#EDECEE"/>
<path fill-rule="evenodd" clip-rule="evenodd" d="M23.0034 16.4978C23.0034 16.212 23.2384 15.9802 23.5283 15.9802H36.1249C36.4148 15.9802 36.6498 16.212 36.6498 16.4978C36.6498 16.7837 36.4148 17.0155 36.1249 17.0155H23.5283C23.2384 17.0155 23.0034 16.7837 23.0034 16.4978Z" fill="#EDECEE"/>
<path fill-rule="evenodd" clip-rule="evenodd" d="M27.2023 18.0507C27.4922 18.0507 27.7272 18.2825 27.7272 18.5683C27.7272 19.1175 27.9483 19.6441 28.3421 20.0324C28.7358 20.4207 29.2698 20.6388 29.8266 20.6388C30.3834 20.6388 30.9174 20.4207 31.3111 20.0324C31.7048 19.6441 31.926 19.1175 31.926 18.5683C31.926 18.2825 32.161 18.0507 32.4509 18.0507C32.7408 18.0507 32.9758 18.2825 32.9758 18.5683C32.9758 19.392 32.644 20.182 32.0534 20.7644C31.4628 21.3469 30.6618 21.6741 29.8266 21.6741C28.9914 21.6741 28.1904 21.3469 27.5998 20.7644C27.0092 20.182 26.6774 19.392 26.6774 18.5683C26.6774 18.2825 26.9124 18.0507 27.2023 18.0507Z" fill="#EDECEE"/>
<path d="M19.4752 28.5413C20.5628 28.3436 21.7022 28.1055 22.8833 27.8281M43.852 20.0512C42.7549 20.6369 41.5748 21.2233 40.3238 21.8026" stroke="#F7F7F8" stroke-width="2"/>
</svg>
