<svg width="193" height="30" viewBox="0 0 193 30" fill="none" xmlns="http://www.w3.org/2000/svg">
<path d="M0.565315 24.0607C0.188438 24.0607 0 23.8723 0 23.4954V7.94926C0 7.59332 0.146563 7.41535 0.439689 7.41535H3.54892C3.84205 7.41535 3.98861 7.57238 3.98861 7.88645V9.51958C3.98861 9.64521 4.02002 9.72896 4.08283 9.77083C4.14564 9.79177 4.22939 9.74989 4.33408 9.64521C4.92033 9.12177 5.48565 8.67161 6.03002 8.29473C6.59534 7.91786 7.17112 7.62473 7.75737 7.41535C8.36456 7.18504 9.00316 7.06988 9.67316 7.06988C10.8457 7.06988 11.8088 7.34207 12.5625 7.88645C13.3163 8.43083 13.8397 9.12177 14.1329 9.95927C14.1747 10.043 14.2376 10.0744 14.3213 10.0535C14.4051 10.0326 14.4888 9.98021 14.5726 9.89646C15.1169 9.35208 15.6927 8.87052 16.2999 8.45176C16.9071 8.03301 17.5352 7.70848 18.1843 7.47817C18.8334 7.22692 19.4824 7.10129 20.1315 7.10129C21.6181 7.10129 22.7906 7.55145 23.649 8.45176C24.5074 9.33114 24.9367 10.5351 24.9367 12.0635V23.4012C24.9367 23.8409 24.7168 24.0607 24.2771 24.0607H21.3877C21.1993 24.0607 21.0632 24.0189 20.9795 23.9351C20.8957 23.8514 20.8538 23.7048 20.8538 23.4954V12.6916C20.8538 11.8751 20.6445 11.2469 20.2257 10.8072C19.8279 10.3466 19.2207 10.1163 18.4041 10.1163C17.9226 10.1163 17.4619 10.2105 17.0223 10.399C16.5826 10.5665 16.1848 10.7863 15.8288 11.0585C15.4729 11.3307 15.1588 11.6029 14.8866 11.8751C14.7401 12.0216 14.6354 12.1682 14.5726 12.3147C14.5307 12.4404 14.5097 12.5974 14.5097 12.7858V23.4012C14.5097 23.8409 14.2899 24.0607 13.8502 24.0607H10.9608C10.7933 24.0607 10.6572 24.0189 10.5525 23.9351C10.4688 23.8514 10.4269 23.7048 10.4269 23.4954V12.6916C10.4269 11.8751 10.228 11.2469 9.83019 10.8072C9.43238 10.3466 8.81472 10.1163 7.97722 10.1163C7.26534 10.1163 6.60581 10.2943 5.99862 10.6502C5.41237 11.0061 4.77377 11.5401 4.08283 12.2519V23.4326C4.08283 23.8514 3.84205 24.0607 3.36048 24.0607H0.565315Z" fill="#1A181B"/>
<path d="M37.878 22.3334C37.1662 22.9615 36.3915 23.464 35.554 23.8409C34.7165 24.1968 33.7638 24.3748 32.696 24.3748C31.0838 24.3748 29.8171 23.956 28.8958 23.1185C27.9955 22.2601 27.5454 21.1504 27.5454 19.7895C27.5454 18.6379 27.8908 17.6434 28.5818 16.8059C29.2727 15.9474 30.2777 15.2774 31.5968 14.7959C32.9158 14.3143 34.4966 14.0316 36.3391 13.9479L37.9095 13.8537C38.0351 13.8327 38.1502 13.7908 38.2549 13.728C38.3596 13.6652 38.412 13.5501 38.412 13.3826V12.6602C38.412 11.739 38.1398 11.0271 37.5954 10.5246C37.051 10.0011 36.2973 9.73942 35.3341 9.73942C34.6013 9.73942 33.9104 9.90693 33.2613 10.2419C32.6332 10.556 32.0888 11.0794 31.6282 11.8122C31.5654 11.9379 31.4921 12.0216 31.4083 12.0635C31.3455 12.1054 31.2199 12.1054 31.0315 12.0635L28.3933 11.404C28.2886 11.3621 28.2049 11.2993 28.1421 11.2155C28.1002 11.1318 28.1421 10.9643 28.2677 10.713C28.833 9.51958 29.7229 8.61926 30.9372 8.01207C32.1726 7.40488 33.701 7.10129 35.5226 7.10129C37.1348 7.10129 38.4329 7.32113 39.417 7.76082C40.422 8.20051 41.1548 8.81817 41.6154 9.6138C42.076 10.3885 42.3063 11.3097 42.3063 12.3776V23.4326C42.3063 23.6629 42.2645 23.8304 42.1807 23.9351C42.1179 24.0189 41.9818 24.0607 41.7724 24.0607H39.1029C38.9145 24.0607 38.7784 23.9874 38.6946 23.8409C38.6109 23.6943 38.5585 23.5164 38.5376 23.307L38.4748 22.3648C38.4329 22.0088 38.234 21.9984 37.878 22.3334ZM38.412 16.4604C38.412 16.0835 38.2549 15.9055 37.9409 15.9265L36.6532 16.0207C35.9832 16.0626 35.3341 16.1673 34.706 16.3348C34.0988 16.4813 33.5544 16.6907 33.0729 16.9629C32.6122 17.2141 32.2354 17.5387 31.9422 17.9365C31.6701 18.3134 31.534 18.7635 31.534 19.287C31.534 19.9988 31.7852 20.5642 32.2877 20.9829C32.8111 21.4017 33.5126 21.611 34.3919 21.611C34.9573 21.611 35.4807 21.5168 35.9623 21.3284C36.4438 21.1399 36.8626 20.8992 37.2185 20.606C37.5745 20.3129 37.8571 20.0093 38.0665 19.6952C38.2968 19.3602 38.412 19.0252 38.412 18.6902V16.4604Z" fill="#1A181B"/>
<path d="M46.7854 24.0607C46.5761 24.0607 46.4295 24.0189 46.3457 23.9351C46.262 23.8304 46.2201 23.6839 46.2201 23.4954V7.94926C46.2201 7.59332 46.3667 7.41535 46.6598 7.41535H49.7062C49.9994 7.41535 50.1459 7.57238 50.1459 7.88645V9.80224C50.1459 9.92786 50.1878 10.0116 50.2715 10.0535C50.3553 10.0744 50.4495 10.0221 50.5542 9.89646C51.0148 9.28927 51.5069 8.78677 52.0303 8.38895C52.5747 7.9702 53.119 7.65614 53.6634 7.44676C54.2287 7.21645 54.7731 7.10129 55.2966 7.10129C56.0503 7.10129 56.4272 7.26879 56.4272 7.60379V10.6188C56.4272 10.9119 56.2911 11.0376 56.0189 10.9957C55.7048 10.9119 55.3698 10.8596 55.0139 10.8386C54.6789 10.7968 54.3648 10.7758 54.0717 10.7758C53.6739 10.7758 53.2447 10.8596 52.784 11.0271C52.3444 11.1946 51.9361 11.4354 51.5592 11.7494C51.1823 12.0426 50.8787 12.3671 50.6484 12.723C50.4181 13.079 50.3029 13.4454 50.3029 13.8223V23.4326C50.3029 23.8514 50.0622 24.0607 49.5806 24.0607H46.7854Z" fill="#1A181B"/>
<path d="M74.9297 23.4012C75.0344 23.5478 75.0553 23.6943 74.9925 23.8409C74.9297 23.9874 74.7831 24.0607 74.5528 24.0607H71.0981C70.9097 24.0607 70.7527 24.0189 70.627 23.9351C70.5223 23.8304 70.4281 23.6839 70.3444 23.4954L66.5756 16.4604C66.5128 16.3138 66.45 16.2301 66.3872 16.2091C66.3244 16.1882 66.2301 16.2405 66.1045 16.3662L63.4978 18.9415C63.414 19.0252 63.3408 19.1195 63.2779 19.2241C63.2361 19.3288 63.2151 19.4754 63.2151 19.6638V23.3698C63.2151 23.621 63.1628 23.799 63.0581 23.9037C62.9534 24.0084 62.765 24.0607 62.4928 24.0607H59.7604C59.5092 24.0607 59.3417 24.0189 59.2579 23.9351C59.1742 23.8304 59.1323 23.6839 59.1323 23.4954V1.29111C59.1323 0.935172 59.2893 0.757202 59.6034 0.757202H62.7755C63.0686 0.757202 63.2151 0.924703 63.2151 1.25971V14.733C63.2151 14.8587 63.2465 14.9424 63.3094 14.9843C63.3722 15.0262 63.4664 14.9738 63.592 14.8273L70.1245 7.85504C70.4177 7.56192 70.6794 7.41535 70.9097 7.41535H73.7677C74.0399 7.41535 74.1969 7.48864 74.2388 7.6352C74.3016 7.78176 74.2388 7.94926 74.0503 8.1377L69.4336 12.7858C69.3499 12.8905 69.2975 12.9952 69.2766 13.0999C69.2556 13.2046 69.2975 13.3616 69.4022 13.571L74.9297 23.4012Z" fill="#1A181B"/>
<path d="M79.9143 17.0257C79.9143 17.8841 80.1132 18.6588 80.511 19.3498C80.9088 20.0198 81.4532 20.5537 82.1441 20.9515C82.856 21.3284 83.6307 21.5168 84.4682 21.5168C85.3266 21.5168 86.1013 21.3388 86.7922 20.9829C87.5041 20.627 88.1741 20.0512 88.8023 19.2556C88.886 19.1509 88.9593 19.0985 89.0221 19.0985C89.0849 19.0776 89.1896 19.109 89.3362 19.1927L91.252 20.0407C91.5241 20.1663 91.5555 20.3548 91.3462 20.606C90.718 21.5273 90.0376 22.2706 89.3048 22.8359C88.5929 23.3803 87.7972 23.7781 86.9179 24.0293C86.0594 24.2596 85.0858 24.3748 83.9971 24.3748C82.4058 24.3748 80.9821 24.0189 79.7258 23.307C78.4696 22.5951 77.475 21.611 76.7422 20.3548C76.0303 19.0776 75.6744 17.612 75.6744 15.9579C75.6744 14.1363 76.0408 12.566 76.7736 11.2469C77.5274 9.92786 78.5324 8.91239 79.7886 8.20051C81.0449 7.4677 82.4268 7.10129 83.9343 7.10129C85.5255 7.10129 86.9074 7.44676 88.0799 8.1377C89.2733 8.82864 90.2051 9.82317 90.8751 11.1213C91.5451 12.3985 91.8801 13.9583 91.8801 15.8009C91.8801 16.0102 91.8591 16.1777 91.8173 16.3034C91.7963 16.429 91.6498 16.5023 91.3776 16.5232H80.2597C80.1341 16.5232 80.0399 16.5651 79.9771 16.6488C79.9352 16.7326 79.9143 16.8582 79.9143 17.0257ZM87.3576 14.1991C87.5669 14.1991 87.703 14.1782 87.7658 14.1363C87.8496 14.0735 87.8915 13.9479 87.8915 13.7594C87.8915 13.1104 87.7449 12.4718 87.4518 11.8437C87.1587 11.2155 86.7294 10.7026 86.1641 10.3047C85.5988 9.88599 84.9079 9.67661 84.0913 9.67661C83.2538 9.67661 82.521 9.88599 81.8928 10.3047C81.2647 10.7026 80.7832 11.2469 80.4482 11.9379C80.1341 12.6079 79.9771 13.3616 79.9771 14.1991H87.3576Z" fill="#1A181B"/>
<path d="M100.557 10.2733C100.348 10.2733 100.243 10.3885 100.243 10.6188V19.0043C100.243 19.8209 100.411 20.3862 100.746 20.7003C101.081 21.0143 101.604 21.1713 102.316 21.1713H104.169C104.295 21.1713 104.399 21.2132 104.483 21.297C104.567 21.3807 104.609 21.4854 104.609 21.611L104.577 23.2442C104.577 23.5792 104.378 23.7885 103.981 23.8723C103.667 23.9142 103.3 23.956 102.881 23.9979C102.463 24.0189 102.044 24.0398 101.625 24.0607C101.227 24.0607 100.861 24.0607 100.526 24.0607C99.1231 24.0607 98.0448 23.7362 97.2911 23.0871C96.5373 22.4171 96.1604 21.4121 96.1604 20.0721V10.6816C96.1604 10.4094 96.0348 10.2733 95.7835 10.2733H93.6793C93.3443 10.2733 93.1768 10.1163 93.1768 9.80224V7.82364C93.1768 7.55145 93.3338 7.41535 93.6479 7.41535H95.972C96.1604 7.41535 96.2546 7.31067 96.2546 7.10129L96.6629 2.26471C96.6839 1.92971 96.8304 1.76221 97.1026 1.76221H99.8978C100.191 1.76221 100.337 1.94018 100.337 2.29612V7.10129C100.337 7.28973 100.432 7.38395 100.62 7.38395H104.169C104.483 7.38395 104.64 7.53051 104.64 7.82364V9.80224C104.64 10.1163 104.462 10.2733 104.106 10.2733H100.557Z" fill="#1A181B"/>
<path d="M117.736 11.5296C117.339 11.0061 116.815 10.5665 116.166 10.2105C115.517 9.85458 114.721 9.67661 113.779 9.67661C112.879 9.67661 112.125 9.85458 111.518 10.2105C110.911 10.5665 110.607 11.069 110.607 11.718C110.607 12.0321 110.733 12.3357 110.984 12.6288C111.235 12.9219 111.79 13.1837 112.649 13.414L116.386 14.419C118.019 14.8168 119.181 15.4449 119.872 16.3034C120.584 17.1409 120.94 18.0935 120.94 19.1613C120.94 20.2501 120.626 21.1818 119.998 21.9565C119.39 22.7312 118.532 23.3279 117.422 23.7467C116.334 24.1654 115.088 24.3748 113.685 24.3748C111.884 24.3748 110.345 24.0503 109.068 23.4012C107.791 22.7312 106.891 21.9042 106.367 20.9201C106.304 20.7945 106.273 20.6793 106.273 20.5746C106.273 20.449 106.325 20.3443 106.43 20.2606L108.283 19.3184C108.451 19.2137 108.587 19.1718 108.691 19.1927C108.796 19.2137 108.88 19.266 108.943 19.3498C109.257 19.7895 109.613 20.1873 110.01 20.5432C110.429 20.8992 110.932 21.1818 111.518 21.3912C112.125 21.6006 112.858 21.6948 113.716 21.6738C114.365 21.6738 114.952 21.5901 115.475 21.4226C116.019 21.2551 116.449 21.0248 116.763 20.7317C117.077 20.4176 117.234 20.0407 117.234 19.601C117.234 19.1823 117.056 18.8159 116.7 18.5018C116.344 18.1877 115.705 17.9156 114.784 17.6852L111.581 16.9315C109.989 16.5546 108.817 15.9893 108.063 15.2355C107.33 14.4818 106.964 13.5396 106.964 12.409C106.964 11.3621 107.236 10.4408 107.781 9.64521C108.346 8.84958 109.141 8.23192 110.167 7.79223C111.193 7.3316 112.408 7.10129 113.811 7.10129C115.36 7.10129 116.7 7.38395 117.831 7.94926C118.961 8.51458 119.788 9.21599 120.312 10.0535C120.395 10.1582 120.448 10.2733 120.469 10.399C120.511 10.5246 120.458 10.6293 120.312 10.713L118.364 11.6866C118.239 11.7494 118.124 11.7704 118.019 11.7494C117.914 11.7076 117.82 11.6343 117.736 11.5296Z" fill="#1A181B"/>
<path d="M127.517 7.41535C127.915 7.41535 128.113 7.60379 128.113 7.98067V9.04848C128.113 9.19505 128.155 9.2788 128.239 9.29974C128.323 9.29974 128.417 9.24739 128.522 9.1427C128.836 8.84958 129.192 8.54598 129.59 8.23192C130.008 7.91785 130.511 7.65614 131.097 7.44676C131.683 7.21645 132.395 7.10129 133.233 7.10129C134.489 7.10129 135.609 7.41535 136.593 8.04348C137.577 8.65067 138.362 9.58239 138.949 10.8386C139.535 12.074 139.828 13.6443 139.828 15.5496C139.828 17.5177 139.535 19.1613 138.949 20.4804C138.362 21.7785 137.546 22.7521 136.499 23.4012C135.473 24.0503 134.29 24.3748 132.95 24.3748C132.092 24.3748 131.306 24.2387 130.595 23.9665C129.883 23.6943 129.244 23.2965 128.679 22.7731C128.469 22.5846 128.323 22.5009 128.239 22.5218C128.155 22.5428 128.113 22.6893 128.113 22.9615V28.7403C128.113 29.0753 127.967 29.2428 127.674 29.2428H124.47C124.177 29.2428 124.031 29.0753 124.031 28.7403V8.04348C124.031 7.81317 124.073 7.65614 124.156 7.57238C124.24 7.4677 124.408 7.41535 124.659 7.41535H127.517ZM128.113 19.9779C128.595 20.5013 129.108 20.9201 129.652 21.2342C130.218 21.5482 130.846 21.7053 131.537 21.7053C132.374 21.7053 133.097 21.4959 133.704 21.0771C134.332 20.6374 134.813 19.9674 135.148 19.0671C135.504 18.1459 135.682 16.9629 135.682 15.5182C135.682 14.0944 135.504 12.9638 135.148 12.1263C134.813 11.2888 134.332 10.6921 133.704 10.3361C133.097 9.95927 132.416 9.77083 131.662 9.77083C130.971 9.77083 130.354 9.91739 129.809 10.2105C129.286 10.4827 128.867 10.8386 128.553 11.2783C128.26 11.718 128.113 12.1787 128.113 12.6602V19.9779Z" fill="#1A181B"/>
<path d="M152.217 22.3334C151.505 22.9615 150.73 23.464 149.893 23.8409C149.055 24.1968 148.103 24.3748 147.035 24.3748C145.423 24.3748 144.156 23.956 143.235 23.1185C142.334 22.2601 141.884 21.1504 141.884 19.7895C141.884 18.6379 142.23 17.6434 142.921 16.8059C143.612 15.9474 144.617 15.2774 145.936 14.7959C147.255 14.3143 148.835 14.0316 150.678 13.9479L152.248 13.8537C152.374 13.8327 152.489 13.7908 152.594 13.728C152.698 13.6652 152.751 13.5501 152.751 13.3826V12.6602C152.751 11.739 152.479 11.0271 151.934 10.5246C151.39 10.0011 150.636 9.73942 149.673 9.73942C148.94 9.73942 148.249 9.90693 147.6 10.2419C146.972 10.556 146.428 11.0794 145.967 11.8122C145.904 11.9379 145.831 12.0216 145.747 12.0635C145.684 12.1054 145.559 12.1054 145.37 12.0635L142.732 11.404C142.627 11.3621 142.544 11.2993 142.481 11.2155C142.439 11.1318 142.481 10.9643 142.607 10.713C143.172 9.51958 144.062 8.61926 145.276 8.01207C146.511 7.40488 148.04 7.10129 149.861 7.10129C151.474 7.10129 152.772 7.32113 153.756 7.76082C154.761 8.20051 155.494 8.81817 155.954 9.6138C156.415 10.3885 156.645 11.3097 156.645 12.3776V23.4326C156.645 23.6629 156.603 23.8304 156.52 23.9351C156.457 24.0189 156.321 24.0607 156.111 24.0607H153.442C153.253 24.0607 153.117 23.9874 153.033 23.8409C152.95 23.6943 152.897 23.5164 152.876 23.307L152.814 22.3648C152.772 22.0088 152.573 21.9984 152.217 22.3334ZM152.751 16.4604C152.751 16.0835 152.594 15.9055 152.28 15.9265L150.992 16.0207C150.322 16.0626 149.673 16.1673 149.045 16.3348C148.438 16.4813 147.893 16.6907 147.412 16.9629C146.951 17.2141 146.574 17.5387 146.281 17.9365C146.009 18.3134 145.873 18.7635 145.873 19.287C145.873 19.9988 146.124 20.5642 146.627 20.9829C147.15 21.4017 147.851 21.611 148.731 21.611C149.296 21.611 149.82 21.5168 150.301 21.3284C150.783 21.1399 151.201 20.8992 151.557 20.606C151.913 20.3129 152.196 20.0093 152.405 19.6952C152.636 19.3602 152.751 19.0252 152.751 18.6902V16.4604Z" fill="#1A181B"/>
<path d="M167.908 7.10129C169.164 7.10129 170.253 7.32113 171.174 7.76082C172.096 8.17957 172.849 8.73442 173.436 9.42536C174.043 10.0954 174.503 10.8072 174.817 11.561C174.943 11.9379 174.838 12.1368 174.503 12.1577L171.74 12.5032C171.53 12.5451 171.384 12.4508 171.3 12.2205C171.028 11.7599 170.745 11.3516 170.452 10.9957C170.159 10.6397 169.824 10.3571 169.447 10.1477C169.07 9.93833 168.609 9.83364 168.065 9.83364C167.228 9.83364 166.484 10.064 165.835 10.5246C165.207 10.9643 164.715 11.6238 164.359 12.5032C164.024 13.3826 163.857 14.4609 163.857 15.738C163.857 17.0362 164.035 18.1249 164.391 19.0043C164.767 19.8837 165.28 20.5537 165.929 21.0143C166.579 21.454 167.353 21.6738 168.254 21.6738C169.196 21.6738 169.97 21.4331 170.578 20.9515C171.185 20.449 171.75 19.7581 172.274 18.8787C172.336 18.7949 172.399 18.7426 172.462 18.7216C172.525 18.7007 172.629 18.7112 172.776 18.7531L174.755 19.287C174.964 19.3498 175.027 19.5277 174.943 19.8209C174.734 20.3024 174.43 20.8154 174.032 21.3598C173.655 21.9042 173.184 22.4067 172.619 22.8673C172.054 23.307 171.373 23.6734 170.578 23.9665C169.803 24.2387 168.913 24.3748 167.908 24.3748C166.317 24.3748 164.903 24.0189 163.668 23.307C162.433 22.5742 161.459 21.5692 160.747 20.292C160.056 18.9938 159.711 17.4968 159.711 15.8009C159.711 14.084 160.067 12.5765 160.779 11.2783C161.491 9.95927 162.464 8.93333 163.7 8.20051C164.935 7.4677 166.338 7.10129 167.908 7.10129Z" fill="#1A181B"/>
<path d="M181.034 17.0257C181.034 17.8841 181.233 18.6588 181.631 19.3498C182.029 20.0198 182.573 20.5537 183.264 20.9515C183.976 21.3284 184.751 21.5168 185.588 21.5168C186.447 21.5168 187.221 21.3388 187.912 20.9829C188.624 20.627 189.294 20.0512 189.922 19.2556C190.006 19.1509 190.079 19.0985 190.142 19.0985C190.205 19.0776 190.31 19.109 190.456 19.1927L192.372 20.0407C192.644 20.1663 192.675 20.3548 192.466 20.606C191.838 21.5273 191.157 22.2706 190.425 22.8359C189.713 23.3803 188.917 23.7781 188.038 24.0293C187.179 24.2596 186.206 24.3748 185.117 24.3748C183.526 24.3748 182.102 24.0189 180.846 23.307C179.589 22.5951 178.595 21.611 177.862 20.3548C177.15 19.0776 176.794 17.612 176.794 15.9579C176.794 14.1363 177.161 12.566 177.894 11.2469C178.647 9.92786 179.652 8.91239 180.909 8.20051C182.165 7.4677 183.547 7.10129 185.054 7.10129C186.645 7.10129 188.027 7.44676 189.2 8.1377C190.393 8.82864 191.325 9.82317 191.995 11.1213C192.665 12.3985 193 13.9583 193 15.8009C193 16.0102 192.979 16.1777 192.937 16.3034C192.916 16.429 192.77 16.5023 192.498 16.5232H181.38C181.254 16.5232 181.16 16.5651 181.097 16.6488C181.055 16.7326 181.034 16.8582 181.034 17.0257ZM188.477 14.1991C188.687 14.1991 188.823 14.1782 188.886 14.1363C188.97 14.0735 189.011 13.9479 189.011 13.7594C189.011 13.1104 188.865 12.4718 188.572 11.8437C188.279 11.2155 187.849 10.7026 187.284 10.3047C186.719 9.88599 186.028 9.67661 185.211 9.67661C184.374 9.67661 183.641 9.88599 183.013 10.3047C182.385 10.7026 181.903 11.2469 181.568 11.9379C181.254 12.6079 181.097 13.3616 181.097 14.1991H188.477Z" fill="#1A181B"/>
</svg>
